<svg height="509pt" viewBox="0 -11 509.88605 509" width="509pt" xmlns="http://www.w3.org/2000/svg"><path d="m236.980469 422.265625s-33.546875 21.890625-96.042969-26.570313l-58.175781-57.910156c-55.261719-69.648437-37.339844-148.746094-5.207031-203.296875-7.511719 21.515625-10.34375 44.390625-8.296876 67.085938 4.03125 37.6875 18.285157 73.554687 41.222657 103.726562 15.195312 21.011719 32.402343 40.496094 51.378906 58.171875 23.152344 21.898438 48.300781 41.582032 75.121094 58.792969zm0 0" fill="#b19046"/><path d="m110.480469 305.300781-27.71875 32.484375-78.566407 92.550782c-3.480468 4.097656-4.902343 9.566406-3.859374 14.84375 1.039062 5.277343 4.429687 9.792968 9.210937 12.265624l54.332031 28.078126c8.078125 4.1875 18.015625 1.550781 22.953125-6.089844l54.105469-83.738282 20.921875-32.222656-4.699219-67zm0 0" fill="#e6e7e8"/><path d="m51.601562 439.921875c-3.46875.003906-6.613281-2.023437-8.046874-5.179687-1.433594-3.15625-.886719-6.859376 1.398437-9.464844l61.792969-70.621094c3.214844-3.671875 8.792968-4.042969 12.464844-.832031 3.671874 3.214843 4.042968 8.792969.832031 12.464843l-61.792969 70.621094c-1.679688 1.914063-4.101562 3.011719-6.648438 3.011719zm0 0" fill="#2c2f38"/><path d="m422.359375 439.921875c0 9.75-7.90625 17.652344-17.65625 17.652344s-17.652344-7.902344-17.652344-17.652344 7.902344-17.65625 17.652344-17.65625 17.65625 7.90625 17.65625 17.65625zm0 0" fill="#e4c05c"/><path d="m342.910156 457.574219c0 4.878906-3.949218 8.828125-8.828125 8.828125-4.875 0-8.824219-3.949219-8.824219-8.828125 0-4.875 3.949219-8.824219 8.824219-8.824219 4.878907 0 8.828125 3.949219 8.828125 8.824219zm0 0" fill="#b19046"/><path d="m369.394531 378.128906c0 4.875-3.953125 8.828125-8.828125 8.828125s-8.828125-3.953125-8.828125-8.828125 3.953125-8.828125 8.828125-8.828125 8.828125 3.953125 8.828125 8.828125zm0 0" fill="#b19046"/><path d="m448.84375 378.128906c-27.101562-6.796875-116.703125-70.796875-156.78125-100.195312.441406 33.457031-1.144531 71.859375-10.945312 91.367187-10.304688 20.902344-25.433594 39.058594-44.136719 52.964844-26.820313-17.210937-51.96875-36.894531-75.121094-58.792969-18.976563-17.675781-36.183594-37.160156-51.378906-58.171875-22.9375-30.171875-37.191407-66.039062-41.222657-103.726562-2.046874-22.695313.785157-45.570313 8.296876-67.085938 2.640624-7.550781 6.074218-14.800781 10.238281-21.628906 28.867187-48.730469 84.746093-67.265625 122.351562-69.914063h.089844l.261719-.265624c35.3125-35.308594 79.449218-52.964844 123.585937-35.308594 44.140625 17.652344 141.242188 132.410156 167.726563 203.03125 26.480468 70.621094-17.65625 176.554687-52.964844 167.726562zm0 0" fill="#e4c05c"/><g fill="#b19046"><path d="m210.496094 42.679688-.261719.265624c-7.777344 10.351563-14.914063 21.171876-21.363281 32.394532-9.054688 18.101562-22.804688 33.4375-39.8125 44.40625-1.136719.761718-2.4375 1.246094-3.796875 1.410156-4.0625.457031-7.902344-1.933594-9.289063-5.777344-1.386718-3.84375.046875-8.136718 3.460938-10.375 14.710937-9.546875 26.550781-22.914062 34.253906-38.667968 3.441406-5.738282 7.324219-12.269532 12.359375-19.773438zm0 0"/><path d="m292.417969 278.199219c-.265625-9.886719-.707031-18.800781-1.058594-26.042969-.355469-7.238281-.621094-12.886719-.621094-15.976562 0-2.382813-.175781-6.355469-.351562-11.738282-1.5-38.578125-4.941407-128.972656 19.246093-169.402344 1.621094-2.714843 4.570313-4.351562 7.730469-4.300781 3.160157.050781 6.054688 1.78125 7.59375 4.542969 1.535157 2.765625 1.480469 6.136719-.140625 8.847656-21.542968 35.929688-18.097656 125.792969-16.773437 159.691406.175781 5.652344.351562 9.886719.351562 12.359376 0 2.914062.265625 8.210937.617188 15.097656.53125 10.503906 1.238281 24.628906 1.414062 40.074218zm0 0"/><path d="m443.738281 334.351562c-1.96875.023438-3.9375-.1875-5.859375-.625-4.621094-1.242187-7.414062-5.9375-6.296875-10.589843 1.117188-4.652344 5.738281-7.566407 10.417969-6.574219 3.957031.496094 7.933594-.714844 10.945312-3.328125 5.058594-4.136719 13.550782-16.117187 13.550782-49.863281 0-4.878906 3.953125-8.828125 8.828125-8.828125s8.828125 3.949219 8.828125 8.828125c0 31.777344-6.945313 53.335937-20.648438 64.023437-5.613281 4.484375-12.578125 6.933594-19.765625 6.957031zm0 0"/></g></svg>